<?xml version="1.0" encoding="utf-8"?>
<!-- Generator: Adobe Illustrator 26.0.0, SVG Export Plug-In . SVG Version: 6.00 Build 0)  -->
<svg version="1.1" id="图层_1" xmlns="http://www.w3.org/2000/svg" xmlns:xlink="http://www.w3.org/1999/xlink" x="0px" y="0px"
	 viewBox="0 0 232 68" style="enable-background:new 0 0 232 68;" xml:space="preserve">
<style type="text/css">
	.st0{fill:#206BC4;}
	.st1{fill:#4A4A4A;}
</style>
<g>
	<path class="st0" d="M18.6,42.9L18.6,42.9l0-4.6H39c3.5,0,6.4-2.9,6.4-6.4s-2.9-6.4-6.4-6.4H2c0,0.5,0,1,0,1.5v14.2
		c0,10.8,7,20.1,16.6,23.5V42.9z"/>
	<path class="st0" d="M41.1,2.2H26.9c-10,0-18.6,5.9-22.6,14.4H39c8.5,0,15.4,6.9,15.4,15.4c0,8.5-6.9,15.4-15.4,15.4H27.6v18.9
		h13.5C54.8,66.2,66,55,66,41.3V27.1C66,13.4,54.8,2.2,41.1,2.2z"/>
</g>
<g>
	<path class="st1" d="M96,23.2c0,0,3.1-2.3,7.8-2.3c7.1,0,13.2,5.9,13.2,13.4s-6.1,13.2-13.2,13.2c-5,0-7.8-2.3-7.8-2.3V54
		c0,1.1-0.9,2-2,2h-2.4c-1.1,0-2-0.9-2-2V23.2c0-1.1,0.9-2,2-2H94C95.1,21.2,96,22.1,96,23.2L96,23.2z M95.9,34.3
		c0,4.2,3.2,7.5,7.6,7.5c4.1,0,7.3-3.3,7.3-7.5c0-4.1-3.2-7.5-7.3-7.5C99.2,26.8,95.9,30.2,95.9,34.3z"/>
	<path class="st1" d="M120,15.5L120,15.5c0-1.7,1.4-3.1,3.1-3.1h0.1c1.7,0,3.1,1.4,3.1,3.1v0c0,1.7-1.4,3.1-3.1,3.1h-0.1
		C121.4,18.7,120,17.2,120,15.5z M120,44V24.3c0-1.7,1.4-3.1,3.1-3.1h0.1c1.7,0,3.1,1.4,3.1,3.1V44c0,1.7-1.4,3.1-3.1,3.1h-0.1
		C121.4,47.1,120,45.7,120,44z"/>
	<path class="st1" d="M136.8,23.8c0,0,2.4-3.1,7.7-3.1c6.1,0,10,4.2,10,10.4v13.3c0,1.5-1.2,2.6-2.6,2.6h-1.1
		c-1.5,0-2.6-1.2-2.6-2.6V32.1c0-3.3-1.9-5.5-5.1-5.5c-3.8,0-6.2,2.3-6.2,6.1v11.7c0,1.5-1.2,2.6-2.6,2.6h-1.1
		c-1.5,0-2.6-1.2-2.6-2.6V23.8c0-1.5,1.2-2.6,2.6-2.6h1C135.6,21.2,136.8,22.4,136.8,23.8L136.8,23.8z"/>
	<path class="st1" d="M178,44.5c0,0-2.5,2.4-7.8,2.4c-7,0-13-5.7-13-13c0-7.3,6-13.1,13-13.1c5,0,7.8,2.2,7.8,2.2v0
		c0-1,0.8-1.8,1.8-1.8h2.8c1,0,1.8,0.8,1.8,1.8v21.8c0,6.5-4.9,11.8-13.4,11.8c-5.1,0-8.8-1.7-11.4-4.6c-0.7-0.8-0.5-2.1,0.4-2.7
		l1.8-1.1c0.7-0.4,1.7-0.3,2.2,0.3c1.6,1.7,3.9,2.8,6.9,2.8c4.5,0,7.2-1.8,7.2-5.8V44.5z M163.5,33.9c0,4.1,3.2,7.4,7.2,7.4
		c4.4,0,7.5-3.2,7.5-7.4c0-4-3.2-7.3-7.5-7.3C166.6,26.6,163.5,29.9,163.5,33.9z"/>
	<path class="st1" d="M187.9,44v-0.4c0-1.7,1.4-3.1,3.1-3.1h0.3c1.7,0,3.1,1.4,3.1,3.1V44c0,1.7-1.4,3.1-3.1,3.1H191
		C189.3,47.1,187.9,45.7,187.9,44z"/>
	<path class="st1" d="M198,15.5L198,15.5c0-1.7,1.4-3.1,3.1-3.1h0.1c1.7,0,3.1,1.4,3.1,3.1v0c0,1.7-1.4,3.1-3.1,3.1h-0.1
		C199.4,18.7,198,17.2,198,15.5z M198,44V24.3c0-1.7,1.4-3.1,3.1-3.1h0.1c1.7,0,3.1,1.4,3.1,3.1V44c0,1.7-1.4,3.1-3.1,3.1h-0.1
		C199.4,47.1,198,45.7,198,44z"/>
	<path class="st1" d="M212.2,38.9c1.1,0,2.1,0.6,2.6,1.6c0.6,1.2,2,2.3,4.9,2.3c2.9,0,4.3-1.4,4.3-2.7c0-4.9-15.7,0.1-15.7-10.8
		c0-4.6,4.1-8.3,10.6-8.3c4.2,0,7.4,1.5,9.3,3.9c1.4,1.9,0,4.6-2.4,4.6l0,0c-1.1,0-2.2-0.6-2.7-1.7c-0.4-1-1.4-1.9-3.9-1.9
		c-2.3,0-4.3,0.7-4.3,2.4c0,5,16,0.7,16,10.5c0,6.2-5.3,8.7-11.7,8.7c-4.5,0-8-1.5-9.9-4c-1.5-1.9,0-4.7,2.4-4.7H212.2z"/>
</g>
</svg>
